<?xml version="1.0" encoding="utf-8"?>
<!-- Generator: Adobe Illustrator 21.0.0, SVG Export Plug-In . SVG Version: 6.00 Build 0)  -->
<svg version="1.1" id="Capa_1" xmlns="http://www.w3.org/2000/svg" xmlns:xlink="http://www.w3.org/1999/xlink" x="0px" y="0px"
	 viewBox="0 0 1024 1024" style="enable-background:new 0 0 1024 1024;" xml:space="preserve">
<style type="text/css">
	.st0{fill:#FFFFFF;}
	.st1{fill:#125AA7;}
	.st2{fill:none;stroke:#000000;stroke-width:50;stroke-miterlimit:10;}
	.st3{fill:#3889FF;}
	.st4{opacity:0.6;fill:#FFFFFF;}
</style>
<g>
	<path class="st0" d="M-1367.4,1019.4h-641.2c-103,0-186.8-83.8-186.8-186.8V4.6h828c103,0,186.8,83.8,186.8,186.8v641.2
		C-1180.6,935.6-1264.4,1019.4-1367.4,1019.4z"/>
</g>
<g>
	<path class="st1" d="M-1367.4,1019.4h-641.2c-103,0-186.8-83.8-186.8-186.8V4.6h828c103,0,186.8,83.8,186.8,186.8v641.2
		C-1180.6,935.6-1264.4,1019.4-1367.4,1019.4z M-2145.4,54.6v778c0,75.4,61.3,136.8,136.8,136.8h641.2
		c75.4,0,136.8-61.3,136.8-136.8V191.4c0-75.4-61.3-136.8-136.8-136.8H-2145.4z"/>
</g>
<g>
	<path d="M-1367.4,2119.4h-641.2c-103,0-186.8-83.8-186.8-186.8v-828h828c103,0,186.8,83.8,186.8,186.8v641.2
		C-1180.6,2035.6-1264.4,2119.4-1367.4,2119.4z M-2145.4,1154.6v778c0,75.4,61.3,136.8,136.8,136.8h641.2
		c75.4,0,136.8-61.3,136.8-136.8v-641.2c0-75.4-61.3-136.8-136.8-136.8H-2145.4z"/>
</g>
<g>
	<path d="M-267.4,2119.4h-641.2c-103,0-186.8-83.8-186.8-186.8v-828h828c103,0,186.8,83.8,186.8,186.8v641.2
		C-80.6,2035.6-164.4,2119.4-267.4,2119.4z M-1045.4,1154.6v778c0,75.4,61.3,136.8,136.8,136.8h641.2c75.4,0,136.8-61.3,136.8-136.8
		v-641.2c0-75.4-61.3-136.8-136.8-136.8H-1045.4z"/>
</g>
<path class="st2" d="M-1370.8-1435h-633.4H-2164v159.8v633.4c0,88.2,71.5,159.8,159.8,159.8h633.4c88.2,0,159.8-71.5,159.8-159.8
	v-633.4C-1211-1363.5-1282.5-1435-1370.8-1435z"/>
<rect x="-2228" y="-365" style="fill:none;" width="1401" height="216"/>
<text transform="matrix(1 0 0 1 -2228 -248.2007)" style="font-family:'Raleway-Black'; font-size:160px;">Raleway Black</text>
<g>
	<path d="M-1561.4,1873.5c-19.7,10.1-40.7,17.9-62.8,23.2c-22.1,5.3-45.5,8-70,8c-43.2,0-82.4-8.1-117.6-24.4
		c-35.2-16.3-65.3-37.9-90.4-64.8c-25.1-26.9-44.5-57.7-58.4-92.4c-13.9-34.7-20.8-70.4-20.8-107.2c0-37.3,7.2-73.3,21.6-108
		c14.4-34.7,34.5-65.3,60.4-92c25.9-26.7,56.5-47.9,92-63.6c35.5-15.7,74.3-23.6,116.4-23.6c43.2,0,82.4,8.4,117.6,25.2
		c35.2,16.8,65.3,38.8,90.4,66c25.1,27.2,44.4,58.1,58,92.8c13.6,34.7,20.4,70.1,20.4,106.4c0,35.2-6.3,68.9-18.8,101.2
		c-12.5,32.3-30.3,61.2-53.2,86.8l86.4,93.6h-145.6L-1561.4,1873.5z M-1692.6,1766.3c11.7,0,21.6-1.1,29.6-3.2l-93.6-102.4h145.6
		l31.2,34.4c5.9-12.3,10.1-25.1,12.8-38.4c2.7-13.3,4-26.9,4-40.8c0-19.2-2.7-37.7-8-55.6c-5.3-17.9-13.5-33.7-24.4-47.6
		c-10.9-13.9-24.5-24.9-40.8-33.2c-16.3-8.3-35.3-12.4-57.2-12.4c-22.4,0-41.7,4.4-58,13.2c-16.3,8.8-29.7,20.3-40.4,34.4
		c-10.7,14.1-18.5,30.1-23.6,48c-5.1,17.9-7.6,36.1-7.6,54.8c0,19.2,2.7,37.7,8,55.6c5.3,17.9,13.3,33.7,24,47.6
		c10.7,13.9,24.1,24.9,40.4,33.2C-1734.3,1762.2-1715,1766.3-1692.6,1766.3z"/>
</g>
<g>
	<path d="M-665.8,1334.7h142.4l196.8,568H-485l-34.4-111.2h-151.2l-33.6,111.2h-159.2L-665.8,1334.7z M-544.2,1687.5l-50.4-176
		l-52.8,176H-544.2z"/>
</g>
<rect x="-900" y="-956.5" style="fill:none;" width="554" height="587"/>
<text transform="matrix(1 0 0 1 -900 -372.5034)" style="font-family:'Raleway-Black'; font-size:800px;">C</text>
<rect x="253.9" y="-956" style="fill:none;" width="446.3" height="586"/>
<rect x="2306" y="-958.3" style="fill:none;" width="622" height="590.5"/>
<text transform="matrix(1 0 0 1 2306 -374.2534)" style="font-family:'Raleway-Black'; font-size:800px;">Q</text>
<rect x="3443.3" y="-956.3" style="fill:none;" width="547.5" height="586.5"/>
<text transform="matrix(1 0 0 1 3443.25 -372.2534)" style="font-family:'Raleway-Black'; font-size:800px;">A</text>
<rect x="1322.8" y="-955.5" style="fill:none;" width="508.5" height="585"/>
<text transform="matrix(1 0 0 1 1322.75 -371.5034)" style="font-family:'Raleway-Black'; font-size:800px;">S</text>
<path class="st3" d="M-1339.5,364h-333.1v475.7h333.1V364z M-1399.9,440.7l24,0l0,38l-24,0L-1399.9,440.7z M-1477.8,440.7l24,0l0,38
	l-24,0L-1477.8,440.7z M-1555.8,440.7l24,0l0,38l-24,0L-1555.8,440.7z M-1633.7,440.7l24,0l0,38l-24,0L-1633.7,440.7z M-1633.8,586
	l24,0l0,38l-24,0L-1633.8,586z M-1633.7,656.4l24,0l0,38l-24,0L-1633.7,656.4z M-1609.7,763.8l-24,0l0-38l24,0L-1609.7,763.8z
	 M-1609.6,549.1l-24,0l0-38l24,0L-1609.6,549.1z M-1555.9,586.1l24,0l0,38l-24,0L-1555.9,586.1z M-1555.8,656.5l24,0l0,38l-24,0
	L-1555.8,656.5z M-1531.8,763.8l-24,0l0-38l24,0L-1531.8,763.8z M-1531.7,549.1l-24,0l0-38l24,0L-1531.7,549.1z M-1477.9,586.1l24,0
	l0,38l-24,0L-1477.9,586.1z M-1477.9,656.5l24,0l0,38l-24,0L-1477.9,656.5z M-1453.9,763.8l-24,0l0-38l24,0L-1453.9,763.8z
	 M-1453.8,549.2l-24,0l0-38l24,0L-1453.8,549.2z M-1400,586.1l24,0l0,38l-24,0L-1400,586.1z M-1400,656.5l24,0l0,38l-24,0
	L-1400,656.5z M-1375.9,763.9l-24,0l0-38l24,0L-1375.9,763.9z M-1375.9,549.2l-24,0l0-38l24,0L-1375.9,549.2z"/>
<path class="st3" d="M-2069.3,863.7h767.6V898h-767.6V863.7z"/>
<path class="st3" d="M-2029.8,795.8c2,22.8,19.7,41,42.3,43.8h248c23.9-3,42.5-23.4,42.5-48.1v-604c0-26.8-21.7-48.5-48.5-48.5
	H-2030L-2029.8,795.8z M-1966.9,763.8l-24,0l0-38l24,0L-1966.9,763.8z M-1991,694.5l0-38l24,0l0,38L-1991,694.5z M-1889,763.8l-24,0
	l0-38l24,0L-1889,763.8z M-1913,694.5l0-38l24,0l0,38L-1913,694.5z M-1811,763.8l-24,0l0-38l24,0L-1811,763.8z M-1835.1,694.5l0-38
	l24,0l0,38L-1835.1,694.5z M-1733.1,763.9l-24,0l0-38l24,0L-1733.1,763.9z M-1757.2,694.5l0-38l24,0l0,38L-1757.2,694.5z
	 M-1733.1,549.2l-24,0l0-38l24,0L-1733.1,549.2z M-1733.1,478.8l-24,0l0-38l24,0L-1733.1,478.8z M-1733.1,408.4l-24,0l0-38l24,0
	L-1733.1,408.4z M-1733.1,339.1l-24,0l0-38l24,0L-1733.1,339.1z M-1757.2,230.6l24,0l0,38l-24,0L-1757.2,230.6z M-1757.2,586.1l24,0
	l0,38l-24,0L-1757.2,586.1z M-1811,549.2l-24,0l0-38l24,0L-1811,549.2z M-1811,478.8l-24,0l0-38l24,0L-1811,478.8z M-1811,408.4
	l-24,0l0-38l24,0L-1811,408.4z M-1811.1,339.1l-24,0l0-38l24,0L-1811.1,339.1z M-1835.1,230.6l24,0l0,38l-24,0L-1835.1,230.6z
	 M-1835.1,586.1l24,0l0,38l-24,0L-1835.1,586.1z M-1888.9,549.1l-24,0l0-38l24,0L-1888.9,549.1z M-1888.9,478.7l-24,0l0-38l24,0
	L-1888.9,478.7z M-1889,408.4l-24,0l0-38l24,0L-1889,408.4z M-1889,339.1l-24,0l0-38l24,0L-1889,339.1z M-1913,230.6l24,0l0,38
	l-24,0L-1913,230.6z M-1913,586.1l24,0l0,38l-24,0L-1913,586.1z M-1966.8,549.1l-24,0l0-38l24,0L-1966.8,549.1z M-1966.9,478.7
	l-24,0l0-38l24,0L-1966.9,478.7z M-1966.9,408.3l-24,0l0-38l24,0L-1966.9,408.3z M-1966.9,339l-24,0l0-38l24,0L-1966.9,339z
	 M-1991,230.6l24,0l0,38l-24,0L-1991,230.6z M-1991,586l24,0l0,38l-24,0L-1991,586z"/>
<g>
	<path class="st0" d="M-266.4,1021.4h-641.2c-103,0-186.8-83.8-186.8-186.8V6.6h828c103,0,186.8,83.8,186.8,186.8v641.2
		C-79.6,937.6-163.4,1021.4-266.4,1021.4z"/>
</g>
<g>
	<path class="st1" d="M-266.4,1021.4h-641.2c-103,0-186.8-83.8-186.8-186.8V6.6h828c103,0,186.8,83.8,186.8,186.8v641.2
		C-79.6,937.6-163.4,1021.4-266.4,1021.4z M-1044.4,56.6v778c0,75.4,61.3,136.8,136.8,136.8h641.2c75.4,0,136.8-61.3,136.8-136.8
		V193.4c0-75.4-61.3-136.8-136.8-136.8H-1044.4z"/>
</g>
<path class="st3" d="M-238.5,366h-333.1v475.7h333.1V366z M-298.9,442.7l24,0l0,38l-24,0L-298.9,442.7z M-376.8,442.7l24,0l0,38
	l-24,0L-376.8,442.7z M-454.8,442.7l24,0l0,38l-24,0L-454.8,442.7z M-532.7,442.7l24,0l0,38l-24,0L-532.7,442.7z M-532.8,588l24,0
	l0,38l-24,0L-532.8,588z M-532.7,658.4l24,0l0,38l-24,0L-532.7,658.4z M-508.7,765.8l-24,0l0-38l24,0L-508.7,765.8z M-508.6,551.1
	l-24,0l0-38l24,0L-508.6,551.1z M-454.9,588.1l24,0l0,38l-24,0L-454.9,588.1z M-454.8,658.5l24,0l0,38l-24,0L-454.8,658.5z
	 M-430.8,765.8l-24,0l0-38l24,0L-430.8,765.8z M-430.7,551.1l-24,0l0-38l24,0L-430.7,551.1z M-376.9,588.1l24,0l0,38l-24,0
	L-376.9,588.1z M-376.9,658.5l24,0l0,38l-24,0L-376.9,658.5z M-352.9,765.8l-24,0l0-38l24,0L-352.9,765.8z M-352.8,551.2l-24,0l0-38
	l24,0L-352.8,551.2z M-299,588.1l24,0l0,38l-24,0L-299,588.1z M-299,658.5l24,0l0,38l-24,0L-299,658.5z M-274.9,765.9l-24,0l0-38
	l24,0L-274.9,765.9z M-274.9,551.2l-24,0l0-38l24,0L-274.9,551.2z"/>
<path class="st3" d="M-968.3,865.7h767.6V900h-767.6V865.7z"/>
<path class="st3" d="M-928.8,797.8c2,22.8,19.7,41,42.3,43.8h248c23.9-3,42.5-23.4,42.5-48.1v-604c0-26.8-21.7-48.5-48.5-48.5H-929
	L-928.8,797.8z M-865.9,765.8l-24,0l0-38l24,0L-865.9,765.8z M-890,696.5l0-38l24,0l0,38L-890,696.5z M-788,765.8l-24,0l0-38l24,0
	L-788,765.8z M-812,696.5l0-38l24,0l0,38L-812,696.5z M-710,765.8l-24,0l0-38l24,0L-710,765.8z M-734.1,696.5l0-38l24,0l0,38
	L-734.1,696.5z M-632.1,765.9l-24,0l0-38l24,0L-632.1,765.9z M-656.2,696.5l0-38l24,0l0,38L-656.2,696.5z M-632.1,551.2l-24,0l0-38
	l24,0L-632.1,551.2z M-632.1,480.8l-24,0l0-38l24,0L-632.1,480.8z M-632.1,410.4l-24,0l0-38l24,0L-632.1,410.4z M-632.1,341.1l-24,0
	l0-38l24,0L-632.1,341.1z M-656.2,232.6l24,0l0,38l-24,0L-656.2,232.6z M-656.2,588.1l24,0l0,38l-24,0L-656.2,588.1z M-710,551.2
	l-24,0l0-38l24,0L-710,551.2z M-710,480.8l-24,0l0-38l24,0L-710,480.8z M-710,410.4l-24,0l0-38l24,0L-710,410.4z M-710.1,341.1
	l-24,0l0-38l24,0L-710.1,341.1z M-734.1,232.6l24,0l0,38l-24,0L-734.1,232.6z M-734.1,588.1l24,0l0,38l-24,0L-734.1,588.1z
	 M-787.9,551.1l-24,0l0-38l24,0L-787.9,551.1z M-787.9,480.7l-24,0l0-38l24,0L-787.9,480.7z M-788,410.4l-24,0l0-38l24,0L-788,410.4
	z M-788,341.1l-24,0l0-38l24,0L-788,341.1z M-812,232.6l24,0l0,38l-24,0L-812,232.6z M-812,588.1l24,0l0,38l-24,0L-812,588.1z
	 M-865.8,551.1l-24,0l0-38l24,0L-865.8,551.1z M-865.9,480.7l-24,0l0-38l24,0L-865.9,480.7z M-865.9,410.3l-24,0l0-38l24,0
	L-865.9,410.3z M-865.9,341l-24,0l0-38l24,0L-865.9,341z M-890,232.6l24,0l0,38l-24,0L-890,232.6z M-890,588l24,0l0,38l-24,0
	L-890,588z"/>
<path class="st4" d="M-536.7,922h-398.3c-39.2,0-70.9-31.8-70.9-70.9V495.4c0-39.2,31.8-70.9,70.9-70.9h398.3
	c39.2,0,70.9,31.8,70.9,70.9v355.6C-465.8,890.2-497.5,922-536.7,922z"/>
<g>
	<path d="M-560,698.3c8.5-12.9,12.8-27,12.8-42.5c0-17.9-6.6-33.5-19.8-46.7c-13.2-13.2-28.9-19.8-46.9-19.8h-45.9
		c8.3-17.2,12.5-33.9,12.5-50c0-20.3-3-36.5-9.1-48.5c-6.1-12-14.9-20.8-26.6-26.5c-11.6-5.6-24.8-8.5-39.4-8.5
		c-8.9,0-16.7,3.2-23.5,9.6c-7.5,7.3-12.9,16.7-16.2,28.2c-3.3,11.5-6,22.5-8,33c-2,10.5-5.1,17.9-9.3,22.3
		c-8.5,9.2-17.8,20.3-27.9,33.4c-17.6,22.8-29.5,36.2-35.7,40.4h-71.4c-9.2,0-17.1,3.3-23.6,9.8c-6.5,6.5-9.8,14.4-9.8,23.6v166.8
		c0,9.2,3.3,17.1,9.8,23.6c6.5,6.5,14.4,9.8,23.6,9.8h75.1c3.8,0,15.8,3.5,36,10.4c21.4,7.5,40.2,13.2,56.4,17.1
		c16.2,3.9,32.7,5.9,49.4,5.9h24.2h9.4c24.5,0,44.2-7,59.2-21c14.9-14,22.3-33.1,22.2-57.2c10.4-13.4,15.6-28.8,15.6-46.4
		c0-3.8-0.3-7.6-0.8-11.2c6.6-11.6,9.9-24.2,9.9-37.5C-557.6,710-558.4,704-560,698.3z M-885.8,818c-3.3,3.3-7.2,5-11.7,5
		c-4.5,0-8.4-1.7-11.7-5c-3.3-3.3-5-7.2-5-11.7c0-4.5,1.6-8.4,5-11.7c3.3-3.3,7.2-5,11.7-5c4.5,0,8.4,1.7,11.7,5
		c3.3,3.3,5,7.2,5,11.7C-880.9,810.8-882.5,814.7-885.8,818z M-586.2,677.2c-3.7,8-8.4,12.1-13.9,12.2c2.6,3,4.8,7.1,6.5,12.4
		c1.7,5.3,2.6,10.1,2.6,14.5c0,12-4.6,22.3-13.8,31c3.1,5.6,4.7,11.6,4.7,18c0,6.4-1.5,12.8-4.6,19.2c-3,6.3-7.2,10.9-12.4,13.7
		c0.9,5.2,1.3,10.1,1.3,14.6c0,29-16.7,43.5-50.1,43.5h-31.5c-22.8,0-52.5-6.3-89.2-19c-0.9-0.3-3.4-1.3-7.6-2.7s-7.3-2.6-9.3-3.3
		c-2-0.7-5-1.7-9.1-3c-4.1-1.3-7.4-2.3-9.9-2.9c-2.5-0.6-5.4-1.2-8.6-1.7c-3.2-0.5-6-0.8-8.2-0.8h-8.3V656.1h8.3
		c2.8,0,5.9-0.8,9.3-2.3c3.4-1.6,6.9-3.9,10.4-7c3.6-3.1,6.9-6.2,10-9.3c3.1-3,6.6-6.9,10.4-11.5c3.8-4.6,6.8-8.3,9-11.1
		c2.2-2.8,4.9-6.3,8.2-10.7c3.3-4.3,5.3-7,6-7.8c9.6-11.8,16.2-19.7,20.1-23.7c7.1-7.5,12.3-17,15.5-28.5
		c3.2-11.6,5.9-22.5,7.9-32.7c2.1-10.3,5.4-17.6,9.9-22.2c16.7,0,27.8,4.1,33.4,12.3c5.6,8.2,8.3,20.8,8.3,37.8
		c0,10.3-4.2,24.2-12.5,41.8c-8.3,17.6-12.5,31.5-12.5,41.6h91.8c8.7,0,16.4,3.3,23.2,10c6.8,6.7,10.2,14.5,10.2,23.3
		C-580.6,662.2-582.4,669.2-586.2,677.2z"/>
</g>
<g>
	<path class="st0" d="M836.6,1021.4H195.4c-103,0-186.8-83.8-186.8-186.8V6.6h828c103,0,186.8,83.8,186.8,186.8v641.2
		C1023.4,937.6,939.6,1021.4,836.6,1021.4z"/>
</g>
<g>
	<path class="st1" d="M836.6,1021.4H195.4c-103,0-186.8-83.8-186.8-186.8V6.6h828c103,0,186.8,83.8,186.8,186.8v641.2
		C1023.4,937.6,939.6,1021.4,836.6,1021.4z M58.6,56.6v778c0,75.4,61.3,136.8,136.8,136.8h641.2c75.4,0,136.8-61.3,136.8-136.8
		V193.4c0-75.4-61.3-136.8-136.8-136.8H58.6z"/>
</g>
<path class="st3" d="M864.5,366H531.4v475.7h333.1V366z M804.1,442.7l24,0l0,38l-24,0L804.1,442.7z M726.2,442.7l24,0l0,38l-24,0
	L726.2,442.7z M648.2,442.7l24,0l0,38l-24,0L648.2,442.7z M570.3,442.7l24,0l0,38l-24,0L570.3,442.7z M570.2,588l24,0l0,38l-24,0
	L570.2,588z M570.3,658.4l24,0l0,38l-24,0L570.3,658.4z M594.3,765.8l-24,0l0-38l24,0L594.3,765.8z M594.4,551.1l-24,0l0-38l24,0
	L594.4,551.1z M648.1,588.1l24,0l0,38l-24,0L648.1,588.1z M648.2,658.5l24,0l0,38l-24,0L648.2,658.5z M672.2,765.8l-24,0l0-38l24,0
	L672.2,765.8z M672.3,551.1l-24,0l0-38l24,0L672.3,551.1z M726.1,588.1l24,0l0,38l-24,0L726.1,588.1z M726.1,658.5l24,0l0,38l-24,0
	L726.1,658.5z M750.1,765.8l-24,0l0-38l24,0L750.1,765.8z M750.2,551.2l-24,0l0-38l24,0L750.2,551.2z M804,588.1l24,0l0,38l-24,0
	L804,588.1z M804,658.5l24,0l0,38l-24,0L804,658.5z M828.1,765.9l-24,0l0-38l24,0L828.1,765.9z M828.1,551.2l-24,0l0-38l24,0
	L828.1,551.2z"/>
<path class="st3" d="M134.7,865.7h767.6V900H134.7V865.7z"/>
<path class="st3" d="M174.2,797.8c2,22.8,19.7,41,42.3,43.8h248c23.9-3,42.5-23.4,42.5-48.1v-604c0-26.8-21.7-48.5-48.5-48.5H174
	L174.2,797.8z M237.1,765.8l-24,0l0-38l24,0L237.1,765.8z M213,696.5l0-38l24,0l0,38L213,696.5z M315,765.8l-24,0l0-38l24,0
	L315,765.8z M291,696.5l0-38l24,0l0,38L291,696.5z M393,765.8l-24,0l0-38l24,0L393,765.8z M368.9,696.5l0-38l24,0l0,38L368.9,696.5z
	 M470.9,765.9l-24,0l0-38l24,0L470.9,765.9z M446.8,696.5l0-38l24,0l0,38L446.8,696.5z M470.9,551.2l-24,0l0-38l24,0L470.9,551.2z
	 M470.9,480.8l-24,0l0-38l24,0L470.9,480.8z M470.9,410.4l-24,0l0-38l24,0L470.9,410.4z M470.9,341.1l-24,0l0-38l24,0L470.9,341.1z
	 M446.8,232.6l24,0l0,38l-24,0L446.8,232.6z M446.8,588.1l24,0l0,38l-24,0L446.8,588.1z M393,551.2l-24,0l0-38l24,0L393,551.2z
	 M393,480.8l-24,0l0-38l24,0L393,480.8z M393,410.4l-24,0l0-38l24,0L393,410.4z M392.9,341.1l-24,0l0-38l24,0L392.9,341.1z
	 M368.9,232.6l24,0l0,38l-24,0L368.9,232.6z M368.9,588.1l24,0l0,38l-24,0L368.9,588.1z M315.1,551.1l-24,0l0-38l24,0L315.1,551.1z
	 M315.1,480.7l-24,0l0-38l24,0L315.1,480.7z M315,410.4l-24,0l0-38l24,0L315,410.4z M315,341.1l-24,0l0-38l24,0L315,341.1z
	 M291,232.6l24,0l0,38l-24,0L291,232.6z M291,588.1l24,0l0,38l-24,0L291,588.1z M237.2,551.1l-24,0l0-38l24,0L237.2,551.1z
	 M237.1,480.7l-24,0l0-38l24,0L237.1,480.7z M237.1,410.3l-24,0l0-38l24,0L237.1,410.3z M237.1,341l-24,0l0-38l24,0L237.1,341z
	 M213,232.6l24,0l0,38l-24,0L213,232.6z M213,588l24,0l0,38l-24,0L213,588z"/>
<path class="st4" d="M167.9,424.5h398.3c39.2,0,70.9,31.8,70.9,70.9v355.6c0,39.2-31.8,70.9-70.9,70.9H167.9
	c-39.2,0-70.9-31.8-70.9-70.9V495.4C97,456.2,128.8,424.5,167.9,424.5z"/>
<g>
	<path d="M191.2,648.2c-8.5,12.9-12.8,27-12.8,42.5c0,17.9,6.6,33.5,19.8,46.7c13.2,13.2,28.9,19.8,46.9,19.8H291
		c-8.3,17.2-12.5,33.9-12.5,50c0,20.3,3,36.5,9.1,48.5c6.1,12,14.9,20.8,26.6,26.5c11.6,5.6,24.8,8.5,39.4,8.5
		c8.9,0,16.7-3.2,23.5-9.6c7.5-7.3,12.9-16.7,16.2-28.2c3.3-11.5,6-22.5,8-33c2-10.5,5.1-17.9,9.3-22.3c8.5-9.2,17.8-20.3,27.9-33.4
		c17.6-22.8,29.5-36.2,35.7-40.4h71.4c9.2,0,17.1-3.3,23.6-9.8c6.5-6.5,9.8-14.4,9.8-23.6V523.6c0-9.2-3.3-17.1-9.8-23.6
		c-6.5-6.5-14.4-9.8-23.6-9.8h-75.1c-3.8,0-15.8-3.5-36-10.4c-21.4-7.5-40.2-13.2-56.4-17.1c-16.2-3.9-32.7-5.9-49.4-5.9h-24.2H295
		c-24.5,0-44.2,7-59.2,21c-14.9,14-22.3,33.1-22.2,57.2c-10.4,13.4-15.6,28.8-15.6,46.4c0,3.8,0.3,7.6,0.8,11.2
		c-6.6,11.6-9.9,24.2-9.9,37.5C188.9,636.4,189.6,642.4,191.2,648.2z M517,528.5c3.3-3.3,7.2-5,11.7-5c4.5,0,8.4,1.7,11.7,5
		c3.3,3.3,5,7.2,5,11.7c0,4.5-1.6,8.4-5,11.7c-3.3,3.3-7.2,5-11.7,5c-4.5,0-8.4-1.7-11.7-5c-3.3-3.3-5-7.2-5-11.7
		C512.1,535.7,513.7,531.8,517,528.5z M217.4,669.3c3.7-8,8.4-12.1,13.9-12.2c-2.6-3-4.8-7.1-6.5-12.4c-1.7-5.3-2.6-10.1-2.6-14.5
		c0-12,4.6-22.3,13.8-31c-3.1-5.6-4.7-11.6-4.7-18c0-6.4,1.5-12.8,4.6-19.2c3-6.3,7.2-10.9,12.4-13.7c-0.9-5.2-1.3-10.1-1.3-14.6
		c0-29,16.7-43.5,50.1-43.5h31.5c22.8,0,52.5,6.3,89.2,19c0.9,0.3,3.4,1.3,7.6,2.7c4.2,1.5,7.3,2.6,9.3,3.3c2,0.7,5,1.7,9.1,3
		c4.1,1.3,7.4,2.3,9.9,2.9c2.5,0.6,5.4,1.2,8.6,1.7c3.2,0.5,6,0.8,8.2,0.8h8.3v166.8h-8.3c-2.8,0-5.9,0.8-9.3,2.3
		c-3.4,1.6-6.9,3.9-10.4,7c-3.6,3.1-6.9,6.2-10,9.3c-3.1,3-6.6,6.9-10.4,11.5c-3.8,4.6-6.8,8.3-9,11.1c-2.2,2.8-4.9,6.3-8.2,10.7
		c-3.3,4.3-5.3,7-6,7.8c-9.6,11.8-16.2,19.7-20.1,23.7c-7.1,7.5-12.3,17-15.5,28.5c-3.2,11.6-5.9,22.5-7.9,32.7
		c-2.1,10.3-5.4,17.6-9.9,22.2c-16.7,0-27.8-4.1-33.4-12.3c-5.6-8.2-8.3-20.8-8.3-37.8c0-10.3,4.2-24.2,12.5-41.8
		c8.3-17.6,12.5-31.5,12.5-41.6h-91.8c-8.7,0-16.4-3.3-23.2-10c-6.8-6.7-10.2-14.5-10.2-23.3C211.8,684.3,213.7,677.3,217.4,669.3z"
		/>
</g>
</svg>
