<?xml version="1.0" encoding="utf-8"?>
<!-- Generator: Adobe Illustrator 21.0.0, SVG Export Plug-In . SVG Version: 6.00 Build 0)  -->
<svg version="1.1" id="Capa_1" xmlns="http://www.w3.org/2000/svg" xmlns:xlink="http://www.w3.org/1999/xlink" x="0px" y="0px"
	 viewBox="0 0 1024 1024" style="enable-background:new 0 0 1024 1024;" xml:space="preserve">
<style type="text/css">
	.st0{fill:#FFFFFF;}
	.st1{fill:#125AA7;}
	.st2{fill:none;stroke:#000000;stroke-width:50;stroke-miterlimit:10;}
	.st3{fill:#3889FF;}
</style>
<g>
	<path class="st0" d="M832.6,1019.4H191.4c-103,0-186.8-83.8-186.8-186.8V4.6h828c103,0,186.8,83.8,186.8,186.8v641.2
		C1019.4,935.6,935.6,1019.4,832.6,1019.4z"/>
</g>
<g>
	<path class="st1" d="M832.6,1019.4H191.4c-103,0-186.8-83.8-186.8-186.8V4.6h828c103,0,186.8,83.8,186.8,186.8v641.2
		C1019.4,935.6,935.6,1019.4,832.6,1019.4z M54.6,54.6v778c0,75.4,61.3,136.8,136.8,136.8h641.2c75.4,0,136.8-61.3,136.8-136.8
		V191.4c0-75.4-61.3-136.8-136.8-136.8H54.6z"/>
</g>
<g>
	<path d="M832.6,2119.4H191.4c-103,0-186.8-83.8-186.8-186.8v-828h828c103,0,186.8,83.8,186.8,186.8v641.2
		C1019.4,2035.6,935.6,2119.4,832.6,2119.4z M54.6,1154.6v778c0,75.4,61.3,136.8,136.8,136.8h641.2c75.4,0,136.8-61.3,136.8-136.8
		v-641.2c0-75.4-61.3-136.8-136.8-136.8H54.6z"/>
</g>
<g>
	<path d="M1932.6,1019.4h-641.2c-103,0-186.8-83.8-186.8-186.8V4.6h828c103,0,186.8,83.8,186.8,186.8v641.2
		C2119.4,935.6,2035.6,1019.4,1932.6,1019.4z M1154.6,54.6v778c0,75.4,61.3,136.8,136.8,136.8h641.2c75.4,0,136.8-61.3,136.8-136.8
		V191.4c0-75.4-61.3-136.8-136.8-136.8H1154.6z"/>
</g>
<g>
	<path d="M1932.6,2119.4h-641.2c-103,0-186.8-83.8-186.8-186.8v-828h828c103,0,186.8,83.8,186.8,186.8v641.2
		C2119.4,2035.6,2035.6,2119.4,1932.6,2119.4z M1154.6,1154.6v778c0,75.4,61.3,136.8,136.8,136.8h641.2
		c75.4,0,136.8-61.3,136.8-136.8v-641.2c0-75.4-61.3-136.8-136.8-136.8H1154.6z"/>
</g>
<g>
	<path d="M3032.6,1019.4h-641.2c-103,0-186.8-83.8-186.8-186.8V4.6h828c103,0,186.8,83.8,186.8,186.8v641.2
		C3219.4,935.6,3135.6,1019.4,3032.6,1019.4z M2254.6,54.6v778c0,75.4,61.3,136.8,136.8,136.8h641.2c75.4,0,136.8-61.3,136.8-136.8
		V191.4c0-75.4-61.3-136.8-136.8-136.8H2254.6z"/>
</g>
<path class="st2" d="M829.2-1435H195.8H36v159.8v633.4C36-553.5,107.5-482,195.8-482h633.4c88.2,0,159.8-71.5,159.8-159.8v-633.4
	C989-1363.5,917.5-1435,829.2-1435z"/>
<rect x="-28" y="-365" style="fill:none;" width="1401" height="216"/>
<text transform="matrix(1 0 0 1 -28 -248.2007)" style="font-family:'Raleway-Black'; font-size:160px;">Raleway Black</text>
<g>
	<path d="M1437.7,803V235h156v432h257.6v136H1437.7z"/>
</g>
<g>
	<path d="M638.6,1873.5c-19.7,10.1-40.7,17.9-62.8,23.2c-22.1,5.3-45.5,8-70,8c-43.2,0-82.4-8.1-117.6-24.4
		c-35.2-16.3-65.3-37.9-90.4-64.8c-25.1-26.9-44.5-57.7-58.4-92.4c-13.9-34.7-20.8-70.4-20.8-107.2c0-37.3,7.2-73.3,21.6-108
		c14.4-34.7,34.5-65.3,60.4-92c25.9-26.7,56.5-47.9,92-63.6c35.5-15.7,74.3-23.6,116.4-23.6c43.2,0,82.4,8.4,117.6,25.2
		c35.2,16.8,65.3,38.8,90.4,66c25.1,27.2,44.4,58.1,58,92.8c13.6,34.7,20.4,70.1,20.4,106.4c0,35.2-6.3,68.9-18.8,101.2
		c-12.5,32.3-30.3,61.2-53.2,86.8l86.4,93.6H664.2L638.6,1873.5z M507.4,1766.3c11.7,0,21.6-1.1,29.6-3.2l-93.6-102.4H589l31.2,34.4
		c5.9-12.3,10.1-25.1,12.8-38.4c2.7-13.3,4-26.9,4-40.8c0-19.2-2.7-37.7-8-55.6c-5.3-17.9-13.5-33.7-24.4-47.6
		c-10.9-13.9-24.5-24.9-40.8-33.2c-16.3-8.3-35.3-12.4-57.2-12.4c-22.4,0-41.7,4.4-58,13.2c-16.3,8.8-29.7,20.3-40.4,34.4
		c-10.7,14.1-18.5,30.1-23.6,48c-5.1,17.9-7.6,36.1-7.6,54.8c0,19.2,2.7,37.7,8,55.6c5.3,17.9,13.3,33.7,24,47.6
		c10.7,13.9,24.1,24.9,40.4,33.2C465.7,1762.2,485,1766.3,507.4,1766.3z"/>
</g>
<g>
	<path d="M1534.3,1334.7h142.4l196.8,568H1715l-34.4-111.2h-151.2l-33.6,111.2h-159.2L1534.3,1334.7z M1655.8,1687.5l-50.4-176
		l-52.8,176H1655.8z"/>
</g>
<g>
	<path d="M2850.5,421.1c-16-9.6-32.5-18.1-49.6-25.6c-14.4-6.4-30.5-12.4-48.4-18c-17.9-5.6-35.3-8.4-52.4-8.4
		c-13.9,0-24.9,2.1-33.2,6.4c-8.3,4.3-12.4,11.5-12.4,21.6c0,7.5,2.4,13.6,7.2,18.4s11.7,9.2,20.8,13.2c9.1,4,20.1,7.9,33.2,11.6
		c13.1,3.7,27.9,8.3,44.4,13.6c26.1,8,49.7,16.8,70.8,26.4c21.1,9.6,39.1,20.9,54,34c14.9,13.1,26.4,28.9,34.4,47.6
		c8,18.7,12,41.3,12,68c0,34.1-6.3,62.8-18.8,86c-12.5,23.2-29.1,41.7-49.6,55.6c-20.5,13.9-43.7,23.9-69.6,30
		c-25.9,6.1-51.9,9.2-78,9.2c-20.8,0-42.1-1.6-64-4.8c-21.9-3.2-43.6-7.7-65.2-13.6c-21.6-5.9-42.4-12.8-62.4-20.8
		s-38.5-17.1-55.6-27.2l67.2-136.8c18.7,11.7,38.1,22.1,58.4,31.2c17.1,8,36.4,15.2,58,21.6c21.6,6.4,43.6,9.6,66,9.6
		c17.1,0,28.9-2.3,35.6-6.8c6.7-4.5,10-10.5,10-18c0-8-3.3-14.8-10-20.4c-6.7-5.6-15.9-10.5-27.6-14.8c-11.7-4.3-25.2-8.5-40.4-12.8
		c-15.2-4.3-31.3-9.3-48.4-15.2c-25.1-8.5-46.7-17.7-64.8-27.6c-18.1-9.9-33.1-21.1-44.8-33.6c-11.7-12.5-20.4-26.8-26-42.8
		c-5.6-16-8.4-34.4-8.4-55.2c0-31.5,5.7-59.2,17.2-83.2c11.5-24,27.1-44,46.8-60c19.7-16,42.3-28.1,67.6-36.4
		c25.3-8.3,52.1-12.4,80.4-12.4c20.8,0,41.1,2,60.8,6c19.7,4,38.8,9.1,57.2,15.2c18.4,6.1,35.6,12.8,51.6,20
		c16,7.2,30.4,14,43.2,20.4L2850.5,421.1z"/>
</g>
<rect x="1300" y="-956.5" style="fill:none;" width="554" height="587"/>
<text transform="matrix(1 0 0 1 1300 -372.5034)" style="font-family:'Raleway-Black'; font-size:800px;">C</text>
<rect x="2453.9" y="-956" style="fill:none;" width="446.3" height="586"/>
<rect x="4506" y="-958.3" style="fill:none;" width="622" height="590.5"/>
<text transform="matrix(1 0 0 1 4506 -374.2534)" style="font-family:'Raleway-Black'; font-size:800px;">Q</text>
<rect x="5643.3" y="-956.3" style="fill:none;" width="547.5" height="586.5"/>
<text transform="matrix(1 0 0 1 5643.25 -372.2534)" style="font-family:'Raleway-Black'; font-size:800px;">A</text>
<rect x="3522.8" y="-955.5" style="fill:none;" width="508.5" height="585"/>
<text transform="matrix(1 0 0 1 3522.75 -371.5034)" style="font-family:'Raleway-Black'; font-size:800px;">S</text>
<path class="st3" d="M860.5,364H527.4v475.7h333.1V364z M800.1,440.7l24,0l0,38l-24,0L800.1,440.7z M722.2,440.7l24,0l0,38l-24,0
	L722.2,440.7z M644.2,440.7l24,0l0,38l-24,0L644.2,440.7z M566.3,440.7l24,0l0,38l-24,0L566.3,440.7z M566.2,586l24,0l0,38l-24,0
	L566.2,586z M566.3,656.4l24,0l0,38l-24,0L566.3,656.4z M590.3,763.8l-24,0l0-38l24,0L590.3,763.8z M590.4,549.1l-24,0l0-38l24,0
	L590.4,549.1z M644.1,586.1l24,0l0,38l-24,0L644.1,586.1z M644.2,656.5l24,0l0,38l-24,0L644.2,656.5z M668.2,763.8l-24,0l0-38l24,0
	L668.2,763.8z M668.3,549.1l-24,0l0-38l24,0L668.3,549.1z M722.1,586.1l24,0l0,38l-24,0L722.1,586.1z M722.1,656.5l24,0l0,38l-24,0
	L722.1,656.5z M746.1,763.8l-24,0l0-38l24,0L746.1,763.8z M746.2,549.2l-24,0l0-38l24,0L746.2,549.2z M800,586.1l24,0l0,38l-24,0
	L800,586.1z M800,656.5l24,0l0,38l-24,0L800,656.5z M824.1,763.9l-24,0l0-38l24,0L824.1,763.9z M824.1,549.2l-24,0l0-38l24,0
	L824.1,549.2z"/>
<path class="st3" d="M130.7,863.7h767.6V898H130.7V863.7z"/>
<path class="st3" d="M170.2,795.8c2,22.8,19.7,41,42.3,43.8h248c23.9-3,42.5-23.4,42.5-48.1v-604c0-26.8-21.7-48.5-48.5-48.5H170
	L170.2,795.8z M233.1,763.8l-24,0l0-38l24,0L233.1,763.8z M209,694.5l0-38l24,0l0,38L209,694.5z M311,763.8l-24,0l0-38l24,0
	L311,763.8z M287,694.5l0-38l24,0l0,38L287,694.5z M389,763.8l-24,0l0-38l24,0L389,763.8z M364.9,694.5l0-38l24,0l0,38L364.9,694.5z
	 M466.9,763.9l-24,0l0-38l24,0L466.9,763.9z M442.8,694.5l0-38l24,0l0,38L442.8,694.5z M466.9,549.2l-24,0l0-38l24,0L466.9,549.2z
	 M466.9,478.8l-24,0l0-38l24,0L466.9,478.8z M466.9,408.4l-24,0l0-38l24,0L466.9,408.4z M466.9,339.1l-24,0l0-38l24,0L466.9,339.1z
	 M442.8,230.6l24,0l0,38l-24,0L442.8,230.6z M442.8,586.1l24,0l0,38l-24,0L442.8,586.1z M389,549.2l-24,0l0-38l24,0L389,549.2z
	 M389,478.8l-24,0l0-38l24,0L389,478.8z M389,408.4l-24,0l0-38l24,0L389,408.4z M388.9,339.1l-24,0l0-38l24,0L388.9,339.1z
	 M364.9,230.6l24,0l0,38l-24,0L364.9,230.6z M364.9,586.1l24,0l0,38l-24,0L364.9,586.1z M311.1,549.1l-24,0l0-38l24,0L311.1,549.1z
	 M311.1,478.7l-24,0l0-38l24,0L311.1,478.7z M311,408.4l-24,0l0-38l24,0L311,408.4z M311,339.1l-24,0l0-38l24,0L311,339.1z
	 M287,230.6l24,0l0,38l-24,0L287,230.6z M287,586.1l24,0l0,38l-24,0L287,586.1z M233.2,549.1l-24,0l0-38l24,0L233.2,549.1z
	 M233.1,478.7l-24,0l0-38l24,0L233.1,478.7z M233.1,408.3l-24,0l0-38l24,0L233.1,408.3z M233.1,339l-24,0l0-38l24,0L233.1,339z
	 M209,230.6l24,0l0,38l-24,0L209,230.6z M209,586l24,0l0,38l-24,0L209,586z"/>
</svg>
