<?xml version="1.0" encoding="utf-8"?>
<!-- Generator: Adobe Illustrator 21.0.0, SVG Export Plug-In . SVG Version: 6.00 Build 0)  -->
<svg version="1.1" id="Capa_1" xmlns="http://www.w3.org/2000/svg" xmlns:xlink="http://www.w3.org/1999/xlink" x="0px" y="0px"
	 viewBox="0 0 1024 1024" style="enable-background:new 0 0 1024 1024;" xml:space="preserve">
<style type="text/css">
	.st0{fill:#FFFFFF;}
	.st1{fill:#125AA7;}
	.st2{fill:none;stroke:#000000;stroke-width:50;stroke-miterlimit:10;}
	.st3{fill:#3889FF;}
	.st4{opacity:0.6;fill:#FFFFFF;}
</style>
<g>
	<path class="st0" d="M-267.4,1019.4h-641.2c-103,0-186.8-83.8-186.8-186.8V4.6h828c103,0,186.8,83.8,186.8,186.8v641.2
		C-80.6,935.6-164.4,1019.4-267.4,1019.4z"/>
</g>
<g>
	<path class="st1" d="M-267.4,1019.4h-641.2c-103,0-186.8-83.8-186.8-186.8V4.6h828c103,0,186.8,83.8,186.8,186.8v641.2
		C-80.6,935.6-164.4,1019.4-267.4,1019.4z M-1045.4,54.6v778c0,75.4,61.3,136.8,136.8,136.8h641.2c75.4,0,136.8-61.3,136.8-136.8
		V191.4c0-75.4-61.3-136.8-136.8-136.8H-1045.4z"/>
</g>
<g>
	<path d="M-267.4,2119.4h-641.2c-103,0-186.8-83.8-186.8-186.8v-828h828c103,0,186.8,83.8,186.8,186.8v641.2
		C-80.6,2035.6-164.4,2119.4-267.4,2119.4z M-1045.4,1154.6v778c0,75.4,61.3,136.8,136.8,136.8h641.2c75.4,0,136.8-61.3,136.8-136.8
		v-641.2c0-75.4-61.3-136.8-136.8-136.8H-1045.4z"/>
</g>
<g>
	<path d="M832.6,2119.4H191.4c-103,0-186.8-83.8-186.8-186.8v-828h828c103,0,186.8,83.8,186.8,186.8v641.2
		C1019.4,2035.6,935.6,2119.4,832.6,2119.4z M54.6,1154.6v778c0,75.4,61.3,136.8,136.8,136.8h641.2c75.4,0,136.8-61.3,136.8-136.8
		v-641.2c0-75.4-61.3-136.8-136.8-136.8H54.6z"/>
</g>
<path class="st2" d="M-270.8-1435h-633.4H-1064v159.8v633.4c0,88.2,71.5,159.8,159.8,159.8h633.4c88.2,0,159.8-71.5,159.8-159.8
	v-633.4C-111-1363.5-182.5-1435-270.8-1435z"/>
<rect x="-1128" y="-365" style="fill:none;" width="1401" height="216"/>
<text transform="matrix(1 0 0 1 -1128 -248.2007)" style="font-family:'Raleway-Black'; font-size:160px;">Raleway Black</text>
<g>
	<path d="M-461.4,1873.5c-19.7,10.1-40.7,17.9-62.8,23.2c-22.1,5.3-45.5,8-70,8c-43.2,0-82.4-8.1-117.6-24.4
		c-35.2-16.3-65.3-37.9-90.4-64.8c-25.1-26.9-44.5-57.7-58.4-92.4c-13.9-34.7-20.8-70.4-20.8-107.2c0-37.3,7.2-73.3,21.6-108
		c14.4-34.7,34.5-65.3,60.4-92c25.9-26.7,56.5-47.9,92-63.6c35.5-15.7,74.3-23.6,116.4-23.6c43.2,0,82.4,8.4,117.6,25.2
		c35.2,16.8,65.3,38.8,90.4,66c25.1,27.2,44.4,58.1,58,92.8c13.6,34.7,20.4,70.1,20.4,106.4c0,35.2-6.3,68.9-18.8,101.2
		c-12.5,32.3-30.3,61.2-53.2,86.8l86.4,93.6h-145.6L-461.4,1873.5z M-592.6,1766.3c11.7,0,21.6-1.1,29.6-3.2l-93.6-102.4H-511
		l31.2,34.4c5.9-12.3,10.1-25.1,12.8-38.4c2.7-13.3,4-26.9,4-40.8c0-19.2-2.7-37.7-8-55.6c-5.3-17.9-13.5-33.7-24.4-47.6
		c-10.9-13.9-24.5-24.9-40.8-33.2c-16.3-8.3-35.3-12.4-57.2-12.4c-22.4,0-41.7,4.4-58,13.2c-16.3,8.8-29.7,20.3-40.4,34.4
		c-10.7,14.1-18.5,30.1-23.6,48c-5.1,17.9-7.6,36.1-7.6,54.8c0,19.2,2.7,37.7,8,55.6c5.3,17.9,13.3,33.7,24,47.6
		c10.7,13.9,24.1,24.9,40.4,33.2C-634.3,1762.2-615,1766.3-592.6,1766.3z"/>
</g>
<g>
	<path d="M434.3,1334.7h142.4l196.8,568H615l-34.4-111.2H429.5l-33.6,111.2H236.6L434.3,1334.7z M555.8,1687.5l-50.4-176l-52.8,176
		H555.8z"/>
</g>
<rect x="200" y="-956.5" style="fill:none;" width="554" height="587"/>
<text transform="matrix(1 0 0 1 200 -372.5034)" style="font-family:'Raleway-Black'; font-size:800px;">C</text>
<rect x="1353.9" y="-956" style="fill:none;" width="446.3" height="586"/>
<rect x="3406" y="-958.3" style="fill:none;" width="622" height="590.5"/>
<text transform="matrix(1 0 0 1 3406 -374.2534)" style="font-family:'Raleway-Black'; font-size:800px;">Q</text>
<rect x="4543.3" y="-956.3" style="fill:none;" width="547.5" height="586.5"/>
<text transform="matrix(1 0 0 1 4543.25 -372.2534)" style="font-family:'Raleway-Black'; font-size:800px;">A</text>
<rect x="2422.8" y="-955.5" style="fill:none;" width="508.5" height="585"/>
<text transform="matrix(1 0 0 1 2422.75 -371.5034)" style="font-family:'Raleway-Black'; font-size:800px;">S</text>
<path class="st3" d="M-239.5,364h-333.1v475.7h333.1V364z M-299.9,440.7l24,0l0,38l-24,0L-299.9,440.7z M-377.8,440.7l24,0l0,38
	l-24,0L-377.8,440.7z M-455.8,440.7l24,0l0,38l-24,0L-455.8,440.7z M-533.7,440.7l24,0l0,38l-24,0L-533.7,440.7z M-533.8,586l24,0
	l0,38l-24,0L-533.8,586z M-533.7,656.4l24,0l0,38l-24,0L-533.7,656.4z M-509.7,763.8l-24,0l0-38l24,0L-509.7,763.8z M-509.6,549.1
	l-24,0l0-38l24,0L-509.6,549.1z M-455.9,586.1l24,0l0,38l-24,0L-455.9,586.1z M-455.8,656.5l24,0l0,38l-24,0L-455.8,656.5z
	 M-431.8,763.8l-24,0l0-38l24,0L-431.8,763.8z M-431.7,549.1l-24,0l0-38l24,0L-431.7,549.1z M-377.9,586.1l24,0l0,38l-24,0
	L-377.9,586.1z M-377.9,656.5l24,0l0,38l-24,0L-377.9,656.5z M-353.9,763.8l-24,0l0-38l24,0L-353.9,763.8z M-353.8,549.2l-24,0l0-38
	l24,0L-353.8,549.2z M-300,586.1l24,0l0,38l-24,0L-300,586.1z M-300,656.5l24,0l0,38l-24,0L-300,656.5z M-275.9,763.9l-24,0l0-38
	l24,0L-275.9,763.9z M-275.9,549.2l-24,0l0-38l24,0L-275.9,549.2z"/>
<path class="st3" d="M-969.3,863.7h767.6V898h-767.6V863.7z"/>
<path class="st3" d="M-929.8,795.8c2,22.8,19.7,41,42.3,43.8h248c23.9-3,42.5-23.4,42.5-48.1v-604c0-26.8-21.7-48.5-48.5-48.5H-930
	L-929.8,795.8z M-866.9,763.8l-24,0l0-38l24,0L-866.9,763.8z M-891,694.5l0-38l24,0l0,38L-891,694.5z M-789,763.8l-24,0l0-38l24,0
	L-789,763.8z M-813,694.5l0-38l24,0l0,38L-813,694.5z M-711,763.8l-24,0l0-38l24,0L-711,763.8z M-735.1,694.5l0-38l24,0l0,38
	L-735.1,694.5z M-633.1,763.9l-24,0l0-38l24,0L-633.1,763.9z M-657.2,694.5l0-38l24,0l0,38L-657.2,694.5z M-633.1,549.2l-24,0l0-38
	l24,0L-633.1,549.2z M-633.1,478.8l-24,0l0-38l24,0L-633.1,478.8z M-633.1,408.4l-24,0l0-38l24,0L-633.1,408.4z M-633.1,339.1l-24,0
	l0-38l24,0L-633.1,339.1z M-657.2,230.6l24,0l0,38l-24,0L-657.2,230.6z M-657.2,586.1l24,0l0,38l-24,0L-657.2,586.1z M-711,549.2
	l-24,0l0-38l24,0L-711,549.2z M-711,478.8l-24,0l0-38l24,0L-711,478.8z M-711,408.4l-24,0l0-38l24,0L-711,408.4z M-711.1,339.1
	l-24,0l0-38l24,0L-711.1,339.1z M-735.1,230.6l24,0l0,38l-24,0L-735.1,230.6z M-735.1,586.1l24,0l0,38l-24,0L-735.1,586.1z
	 M-788.9,549.1l-24,0l0-38l24,0L-788.9,549.1z M-788.9,478.7l-24,0l0-38l24,0L-788.9,478.7z M-789,408.4l-24,0l0-38l24,0L-789,408.4
	z M-789,339.1l-24,0l0-38l24,0L-789,339.1z M-813,230.6l24,0l0,38l-24,0L-813,230.6z M-813,586.1l24,0l0,38l-24,0L-813,586.1z
	 M-866.8,549.1l-24,0l0-38l24,0L-866.8,549.1z M-866.9,478.7l-24,0l0-38l24,0L-866.9,478.7z M-866.9,408.3l-24,0l0-38l24,0
	L-866.9,408.3z M-866.9,339l-24,0l0-38l24,0L-866.9,339z M-891,230.6l24,0l0,38l-24,0L-891,230.6z M-891,586l24,0l0,38l-24,0
	L-891,586z"/>
<g>
	<path class="st0" d="M833.6,1021.4H192.4c-103,0-186.8-83.8-186.8-186.8V6.6h828c103,0,186.8,83.8,186.8,186.8v641.2
		C1020.4,937.6,936.6,1021.4,833.6,1021.4z"/>
</g>
<g>
	<path class="st1" d="M833.6,1021.4H192.4c-103,0-186.8-83.8-186.8-186.8V6.6h828c103,0,186.8,83.8,186.8,186.8v641.2
		C1020.4,937.6,936.6,1021.4,833.6,1021.4z M55.6,56.6v778c0,75.4,61.3,136.8,136.8,136.8h641.2c75.4,0,136.8-61.3,136.8-136.8
		V193.4c0-75.4-61.3-136.8-136.8-136.8H55.6z"/>
</g>
<path class="st3" d="M861.5,366H528.4v475.7h333.1V366z M801.1,442.7l24,0l0,38l-24,0L801.1,442.7z M723.2,442.7l24,0l0,38l-24,0
	L723.2,442.7z M645.2,442.7l24,0l0,38l-24,0L645.2,442.7z M567.3,442.7l24,0l0,38l-24,0L567.3,442.7z M567.2,588l24,0l0,38l-24,0
	L567.2,588z M567.3,658.4l24,0l0,38l-24,0L567.3,658.4z M591.3,765.8l-24,0l0-38l24,0L591.3,765.8z M591.4,551.1l-24,0l0-38l24,0
	L591.4,551.1z M645.1,588.1l24,0l0,38l-24,0L645.1,588.1z M645.2,658.5l24,0l0,38l-24,0L645.2,658.5z M669.2,765.8l-24,0l0-38l24,0
	L669.2,765.8z M669.3,551.1l-24,0l0-38l24,0L669.3,551.1z M723.1,588.1l24,0l0,38l-24,0L723.1,588.1z M723.1,658.5l24,0l0,38l-24,0
	L723.1,658.5z M747.1,765.8l-24,0l0-38l24,0L747.1,765.8z M747.2,551.2l-24,0l0-38l24,0L747.2,551.2z M801,588.1l24,0l0,38l-24,0
	L801,588.1z M801,658.5l24,0l0,38l-24,0L801,658.5z M825.1,765.9l-24,0l0-38l24,0L825.1,765.9z M825.1,551.2l-24,0l0-38l24,0
	L825.1,551.2z"/>
<path class="st3" d="M131.7,865.7h767.6V900H131.7V865.7z"/>
<path class="st3" d="M171.2,797.8c2,22.8,19.7,41,42.3,43.8h248c23.9-3,42.5-23.4,42.5-48.1v-604c0-26.8-21.7-48.5-48.5-48.5H171
	L171.2,797.8z M234.1,765.8l-24,0l0-38l24,0L234.1,765.8z M210,696.5l0-38l24,0l0,38L210,696.5z M312,765.8l-24,0l0-38l24,0
	L312,765.8z M288,696.5l0-38l24,0l0,38L288,696.5z M390,765.8l-24,0l0-38l24,0L390,765.8z M365.9,696.5l0-38l24,0l0,38L365.9,696.5z
	 M467.9,765.9l-24,0l0-38l24,0L467.9,765.9z M443.8,696.5l0-38l24,0l0,38L443.8,696.5z M467.9,551.2l-24,0l0-38l24,0L467.9,551.2z
	 M467.9,480.8l-24,0l0-38l24,0L467.9,480.8z M467.9,410.4l-24,0l0-38l24,0L467.9,410.4z M467.9,341.1l-24,0l0-38l24,0L467.9,341.1z
	 M443.8,232.6l24,0l0,38l-24,0L443.8,232.6z M443.8,588.1l24,0l0,38l-24,0L443.8,588.1z M390,551.2l-24,0l0-38l24,0L390,551.2z
	 M390,480.8l-24,0l0-38l24,0L390,480.8z M390,410.4l-24,0l0-38l24,0L390,410.4z M389.9,341.1l-24,0l0-38l24,0L389.9,341.1z
	 M365.9,232.6l24,0l0,38l-24,0L365.9,232.6z M365.9,588.1l24,0l0,38l-24,0L365.9,588.1z M312.1,551.1l-24,0l0-38l24,0L312.1,551.1z
	 M312.1,480.7l-24,0l0-38l24,0L312.1,480.7z M312,410.4l-24,0l0-38l24,0L312,410.4z M312,341.1l-24,0l0-38l24,0L312,341.1z
	 M288,232.6l24,0l0,38l-24,0L288,232.6z M288,588.1l24,0l0,38l-24,0L288,588.1z M234.2,551.1l-24,0l0-38l24,0L234.2,551.1z
	 M234.1,480.7l-24,0l0-38l24,0L234.1,480.7z M234.1,410.3l-24,0l0-38l24,0L234.1,410.3z M234.1,341l-24,0l0-38l24,0L234.1,341z
	 M210,232.6l24,0l0,38l-24,0L210,232.6z M210,588l24,0l0,38l-24,0L210,588z"/>
<path class="st4" d="M563.3,922H164.9c-39.2,0-70.9-31.8-70.9-70.9V495.4c0-39.2,31.8-70.9,70.9-70.9h398.3
	c39.2,0,70.9,31.8,70.9,70.9v355.6C634.2,890.2,602.5,922,563.3,922z"/>
<g>
	<path d="M540,698.3c8.5-12.9,12.8-27,12.8-42.5c0-17.9-6.6-33.5-19.8-46.7c-13.2-13.2-28.9-19.8-46.9-19.8h-45.9
		c8.3-17.2,12.5-33.9,12.5-50c0-20.3-3-36.5-9.1-48.5c-6.1-12-14.9-20.8-26.6-26.5c-11.6-5.6-24.8-8.5-39.4-8.5
		c-8.9,0-16.7,3.2-23.5,9.6c-7.5,7.3-12.9,16.7-16.2,28.2c-3.3,11.5-6,22.5-8,33c-2,10.5-5.1,17.9-9.3,22.3
		c-8.5,9.2-17.8,20.3-27.9,33.4c-17.6,22.8-29.5,36.2-35.7,40.4h-71.4c-9.2,0-17.1,3.3-23.6,9.8c-6.5,6.5-9.8,14.4-9.8,23.6v166.8
		c0,9.2,3.3,17.1,9.8,23.6c6.5,6.5,14.4,9.8,23.6,9.8h75.1c3.8,0,15.8,3.5,36,10.4c21.4,7.5,40.2,13.2,56.4,17.1
		c16.2,3.9,32.7,5.9,49.4,5.9h24.2h9.4c24.5,0,44.2-7,59.2-21c14.9-14,22.3-33.1,22.2-57.2c10.4-13.4,15.6-28.8,15.6-46.4
		c0-3.8-0.3-7.6-0.8-11.2c6.6-11.6,9.9-24.2,9.9-37.5C542.4,710,541.6,704,540,698.3z M214.2,818c-3.3,3.3-7.2,5-11.7,5
		c-4.5,0-8.4-1.7-11.7-5c-3.3-3.3-5-7.2-5-11.7c0-4.5,1.6-8.4,5-11.7c3.3-3.3,7.2-5,11.7-5c4.5,0,8.4,1.7,11.7,5
		c3.3,3.3,5,7.2,5,11.7C219.1,810.8,217.5,814.7,214.2,818z M513.8,677.2c-3.7,8-8.4,12.1-13.9,12.2c2.6,3,4.8,7.1,6.5,12.4
		c1.7,5.3,2.6,10.1,2.6,14.5c0,12-4.6,22.3-13.8,31c3.1,5.6,4.7,11.6,4.7,18c0,6.4-1.5,12.8-4.6,19.2c-3,6.3-7.2,10.9-12.4,13.7
		c0.9,5.2,1.3,10.1,1.3,14.6c0,29-16.7,43.5-50.1,43.5h-31.5c-22.8,0-52.5-6.3-89.2-19c-0.9-0.3-3.4-1.3-7.6-2.7
		c-4.2-1.5-7.3-2.6-9.3-3.3c-2-0.7-5-1.7-9.1-3c-4.1-1.3-7.4-2.3-9.9-2.9c-2.5-0.6-5.4-1.2-8.6-1.7c-3.2-0.5-6-0.8-8.2-0.8h-8.3
		V656.1h8.3c2.8,0,5.9-0.8,9.3-2.3c3.4-1.6,6.9-3.9,10.4-7c3.6-3.1,6.9-6.2,10-9.3c3.1-3,6.6-6.9,10.4-11.5c3.8-4.6,6.8-8.3,9-11.1
		c2.2-2.8,4.9-6.3,8.2-10.7c3.3-4.3,5.3-7,6-7.8c9.6-11.8,16.2-19.7,20.1-23.7c7.1-7.5,12.3-17,15.5-28.5
		c3.2-11.6,5.9-22.5,7.9-32.7c2.1-10.3,5.4-17.6,9.9-22.2c16.7,0,27.8,4.1,33.4,12.3c5.6,8.2,8.3,20.8,8.3,37.8
		c0,10.3-4.2,24.2-12.5,41.8c-8.3,17.6-12.5,31.5-12.5,41.6h91.8c8.7,0,16.4,3.3,23.2,10c6.8,6.7,10.2,14.5,10.2,23.3
		C519.4,662.2,517.6,669.2,513.8,677.2z"/>
</g>
<g>
	<path class="st0" d="M1936.6,1021.4h-641.2c-103,0-186.8-83.8-186.8-186.8V6.6h828c103,0,186.8,83.8,186.8,186.8v641.2
		C2123.4,937.6,2039.6,1021.4,1936.6,1021.4z"/>
</g>
<g>
	<path class="st1" d="M1936.6,1021.4h-641.2c-103,0-186.8-83.8-186.8-186.8V6.6h828c103,0,186.8,83.8,186.8,186.8v641.2
		C2123.4,937.6,2039.6,1021.4,1936.6,1021.4z M1158.6,56.6v778c0,75.4,61.3,136.8,136.8,136.8h641.2c75.4,0,136.8-61.3,136.8-136.8
		V193.4c0-75.4-61.3-136.8-136.8-136.8H1158.6z"/>
</g>
<path class="st3" d="M1964.5,366h-333.1v475.7h333.1V366z M1904.1,442.7l24,0l0,38l-24,0L1904.1,442.7z M1826.2,442.7l24,0l0,38
	l-24,0L1826.2,442.7z M1748.2,442.7l24,0l0,38l-24,0L1748.2,442.7z M1670.3,442.7l24,0l0,38l-24,0L1670.3,442.7z M1670.2,588l24,0
	l0,38l-24,0L1670.2,588z M1670.3,658.4l24,0l0,38l-24,0L1670.3,658.4z M1694.3,765.8l-24,0l0-38l24,0L1694.3,765.8z M1694.4,551.1
	l-24,0l0-38l24,0L1694.4,551.1z M1748.1,588.1l24,0l0,38l-24,0L1748.1,588.1z M1748.2,658.5l24,0l0,38l-24,0L1748.2,658.5z
	 M1772.2,765.8l-24,0l0-38l24,0L1772.2,765.8z M1772.3,551.1l-24,0l0-38l24,0L1772.3,551.1z M1826.1,588.1l24,0l0,38l-24,0
	L1826.1,588.1z M1826.1,658.5l24,0l0,38l-24,0L1826.1,658.5z M1850.1,765.8l-24,0l0-38l24,0L1850.1,765.8z M1850.2,551.2l-24,0l0-38
	l24,0L1850.2,551.2z M1904,588.1l24,0l0,38l-24,0L1904,588.1z M1904,658.5l24,0l0,38l-24,0L1904,658.5z M1928.1,765.9l-24,0l0-38
	l24,0L1928.1,765.9z M1928.1,551.2l-24,0l0-38l24,0L1928.1,551.2z"/>
<path class="st3" d="M1234.7,865.7h767.6V900h-767.6V865.7z"/>
<path class="st3" d="M1274.2,797.8c2,22.8,19.7,41,42.3,43.8h248c23.9-3,42.5-23.4,42.5-48.1v-604c0-26.8-21.7-48.5-48.5-48.5H1274
	L1274.2,797.8z M1337.1,765.8l-24,0l0-38l24,0L1337.1,765.8z M1313,696.5l0-38l24,0l0,38L1313,696.5z M1415,765.8l-24,0l0-38l24,0
	L1415,765.8z M1391,696.5l0-38l24,0l0,38L1391,696.5z M1493,765.8l-24,0l0-38l24,0L1493,765.8z M1468.9,696.5l0-38l24,0l0,38
	L1468.9,696.5z M1570.9,765.9l-24,0l0-38l24,0L1570.9,765.9z M1546.8,696.5l0-38l24,0l0,38L1546.8,696.5z M1570.9,551.2l-24,0l0-38
	l24,0L1570.9,551.2z M1570.9,480.8l-24,0l0-38l24,0L1570.9,480.8z M1570.9,410.4l-24,0l0-38l24,0L1570.9,410.4z M1570.9,341.1l-24,0
	l0-38l24,0L1570.9,341.1z M1546.8,232.6l24,0l0,38l-24,0L1546.8,232.6z M1546.8,588.1l24,0l0,38l-24,0L1546.8,588.1z M1493,551.2
	l-24,0l0-38l24,0L1493,551.2z M1493,480.8l-24,0l0-38l24,0L1493,480.8z M1493,410.4l-24,0l0-38l24,0L1493,410.4z M1492.9,341.1
	l-24,0l0-38l24,0L1492.9,341.1z M1468.9,232.6l24,0l0,38l-24,0L1468.9,232.6z M1468.9,588.1l24,0l0,38l-24,0L1468.9,588.1z
	 M1415.1,551.1l-24,0l0-38l24,0L1415.1,551.1z M1415.1,480.7l-24,0l0-38l24,0L1415.1,480.7z M1415,410.4l-24,0l0-38l24,0L1415,410.4
	z M1415,341.1l-24,0l0-38l24,0L1415,341.1z M1391,232.6l24,0l0,38l-24,0L1391,232.6z M1391,588.1l24,0l0,38l-24,0L1391,588.1z
	 M1337.2,551.1l-24,0l0-38l24,0L1337.2,551.1z M1337.1,480.7l-24,0l0-38l24,0L1337.1,480.7z M1337.1,410.3l-24,0l0-38l24,0
	L1337.1,410.3z M1337.1,341l-24,0l0-38l24,0L1337.1,341z M1313,232.6l24,0l0,38l-24,0L1313,232.6z M1313,588l24,0l0,38l-24,0
	L1313,588z"/>
<path class="st4" d="M1267.9,424.5h398.3c39.2,0,70.9,31.8,70.9,70.9v355.6c0,39.2-31.8,70.9-70.9,70.9h-398.3
	c-39.2,0-70.9-31.8-70.9-70.9V495.4C1197,456.2,1228.8,424.5,1267.9,424.5z"/>
<g>
	<path d="M1291.2,648.2c-8.5,12.9-12.8,27-12.8,42.5c0,17.9,6.6,33.5,19.8,46.7c13.2,13.2,28.9,19.8,46.9,19.8h45.9
		c-8.3,17.2-12.5,33.9-12.5,50c0,20.3,3,36.5,9.1,48.5c6.1,12,14.9,20.8,26.6,26.5c11.6,5.6,24.8,8.5,39.4,8.5
		c8.9,0,16.7-3.2,23.5-9.6c7.5-7.3,12.9-16.7,16.2-28.2c3.3-11.5,6-22.5,8-33c2-10.5,5.1-17.9,9.3-22.3c8.5-9.2,17.8-20.3,27.9-33.4
		c17.6-22.8,29.5-36.2,35.7-40.4h71.4c9.2,0,17.1-3.3,23.6-9.8c6.5-6.5,9.8-14.4,9.8-23.6V523.6c0-9.2-3.3-17.1-9.8-23.6
		c-6.5-6.5-14.4-9.8-23.6-9.8h-75.1c-3.8,0-15.8-3.5-36-10.4c-21.4-7.5-40.2-13.2-56.4-17.1c-16.2-3.9-32.7-5.9-49.4-5.9h-24.2h-9.4
		c-24.5,0-44.2,7-59.2,21c-14.9,14-22.3,33.1-22.2,57.2c-10.4,13.4-15.6,28.8-15.6,46.4c0,3.8,0.3,7.6,0.8,11.2
		c-6.6,11.6-9.9,24.2-9.9,37.5C1288.9,636.4,1289.6,642.4,1291.2,648.2z M1617,528.5c3.3-3.3,7.2-5,11.7-5c4.5,0,8.4,1.7,11.7,5
		c3.3,3.3,5,7.2,5,11.7c0,4.5-1.6,8.4-5,11.7c-3.3,3.3-7.2,5-11.7,5c-4.5,0-8.4-1.7-11.7-5c-3.3-3.3-5-7.2-5-11.7
		C1612.1,535.7,1613.7,531.8,1617,528.5z M1317.4,669.3c3.7-8,8.4-12.1,13.9-12.2c-2.6-3-4.8-7.1-6.5-12.4
		c-1.7-5.3-2.6-10.1-2.6-14.5c0-12,4.6-22.3,13.8-31c-3.1-5.6-4.7-11.6-4.7-18c0-6.4,1.5-12.8,4.6-19.2c3-6.3,7.2-10.9,12.4-13.7
		c-0.9-5.2-1.3-10.1-1.3-14.6c0-29,16.7-43.5,50.1-43.5h31.5c22.8,0,52.5,6.3,89.2,19c0.9,0.3,3.4,1.3,7.6,2.7
		c4.2,1.5,7.3,2.6,9.3,3.3c2,0.7,5,1.7,9.1,3c4.1,1.3,7.4,2.3,9.9,2.9c2.5,0.6,5.4,1.2,8.6,1.7c3.2,0.5,6,0.8,8.2,0.8h8.3v166.8
		h-8.3c-2.8,0-5.9,0.8-9.3,2.3c-3.4,1.6-6.9,3.9-10.4,7c-3.6,3.1-6.9,6.2-10,9.3c-3.1,3-6.6,6.9-10.4,11.5c-3.8,4.6-6.8,8.3-9,11.1
		c-2.2,2.8-4.9,6.3-8.2,10.7c-3.3,4.3-5.3,7-6,7.8c-9.6,11.8-16.2,19.7-20.1,23.7c-7.1,7.5-12.3,17-15.5,28.5
		c-3.2,11.6-5.9,22.5-7.9,32.7c-2.1,10.3-5.4,17.6-9.9,22.2c-16.7,0-27.8-4.1-33.4-12.3c-5.6-8.2-8.3-20.8-8.3-37.8
		c0-10.3,4.2-24.2,12.5-41.8c8.3-17.6,12.5-31.5,12.5-41.6h-91.8c-8.7,0-16.4-3.3-23.2-10c-6.8-6.7-10.2-14.5-10.2-23.3
		C1311.8,684.3,1313.7,677.3,1317.4,669.3z"/>
</g>
</svg>
